<mxfile host="Electron" modified="2023-11-28T04:18:02.740Z" agent="Mozilla/5.0 (Windows NT 10.0; Win64; x64) AppleWebKit/537.36 (KHTML, like Gecko) draw.io/22.1.2 Chrome/114.0.5735.289 Electron/25.9.4 Safari/537.36" etag="HZJPM2m1dR2mW-zNApkd" version="22.1.2" type="device">
  <diagram id="C5RBs43oDa-KdzZeNtuy" name="Page-1">
    <mxGraphModel dx="1863" dy="606" grid="1" gridSize="10" guides="1" tooltips="1" connect="1" arrows="1" fold="1" page="1" pageScale="1" pageWidth="827" pageHeight="1169" math="0" shadow="0">
      <root>
        <mxCell id="WIyWlLk6GJQsqaUBKTNV-0" />
        <mxCell id="WIyWlLk6GJQsqaUBKTNV-1" parent="WIyWlLk6GJQsqaUBKTNV-0" />
        <mxCell id="_KhxZf7phmnwPME--tsP-2" style="edgeStyle=orthogonalEdgeStyle;rounded=0;orthogonalLoop=1;jettySize=auto;html=1;exitX=0.5;exitY=1;exitDx=0;exitDy=0;entryX=0.5;entryY=0;entryDx=0;entryDy=0;" edge="1" parent="WIyWlLk6GJQsqaUBKTNV-1" source="_KhxZf7phmnwPME--tsP-0" target="_KhxZf7phmnwPME--tsP-1">
          <mxGeometry relative="1" as="geometry" />
        </mxCell>
        <mxCell id="_KhxZf7phmnwPME--tsP-0" value="start" style="ellipse;whiteSpace=wrap;html=1;" vertex="1" parent="WIyWlLk6GJQsqaUBKTNV-1">
          <mxGeometry x="354" y="40" width="120" height="80" as="geometry" />
        </mxCell>
        <mxCell id="_KhxZf7phmnwPME--tsP-4" style="edgeStyle=orthogonalEdgeStyle;rounded=0;orthogonalLoop=1;jettySize=auto;html=1;exitX=0.5;exitY=1;exitDx=0;exitDy=0;entryX=0.5;entryY=0;entryDx=0;entryDy=0;" edge="1" parent="WIyWlLk6GJQsqaUBKTNV-1" source="_KhxZf7phmnwPME--tsP-1" target="_KhxZf7phmnwPME--tsP-3">
          <mxGeometry relative="1" as="geometry" />
        </mxCell>
        <mxCell id="_KhxZf7phmnwPME--tsP-1" value="str[100]&lt;br&gt;count[100] = {0}&lt;br&gt;countAppear&lt;br&gt;size = strlen(str)" style="rounded=0;whiteSpace=wrap;html=1;" vertex="1" parent="WIyWlLk6GJQsqaUBKTNV-1">
          <mxGeometry x="354" y="160" width="120" height="60" as="geometry" />
        </mxCell>
        <mxCell id="_KhxZf7phmnwPME--tsP-6" style="edgeStyle=orthogonalEdgeStyle;rounded=0;orthogonalLoop=1;jettySize=auto;html=1;exitX=0.5;exitY=1;exitDx=0;exitDy=0;entryX=0.5;entryY=0;entryDx=0;entryDy=0;" edge="1" parent="WIyWlLk6GJQsqaUBKTNV-1" source="_KhxZf7phmnwPME--tsP-3" target="_KhxZf7phmnwPME--tsP-5">
          <mxGeometry relative="1" as="geometry" />
        </mxCell>
        <mxCell id="_KhxZf7phmnwPME--tsP-3" value="nhap vao chuoi&lt;br&gt;" style="shape=parallelogram;perimeter=parallelogramPerimeter;whiteSpace=wrap;html=1;fixedSize=1;" vertex="1" parent="WIyWlLk6GJQsqaUBKTNV-1">
          <mxGeometry x="354" y="260" width="120" height="60" as="geometry" />
        </mxCell>
        <mxCell id="_KhxZf7phmnwPME--tsP-7" style="edgeStyle=orthogonalEdgeStyle;rounded=0;orthogonalLoop=1;jettySize=auto;html=1;exitX=0.5;exitY=1;exitDx=0;exitDy=0;" edge="1" parent="WIyWlLk6GJQsqaUBKTNV-1" source="_KhxZf7phmnwPME--tsP-5">
          <mxGeometry relative="1" as="geometry">
            <mxPoint x="414" y="490" as="targetPoint" />
          </mxGeometry>
        </mxCell>
        <mxCell id="_KhxZf7phmnwPME--tsP-31" style="edgeStyle=orthogonalEdgeStyle;rounded=0;orthogonalLoop=1;jettySize=auto;html=1;exitX=1;exitY=0.5;exitDx=0;exitDy=0;" edge="1" parent="WIyWlLk6GJQsqaUBKTNV-1" source="_KhxZf7phmnwPME--tsP-5">
          <mxGeometry relative="1" as="geometry">
            <mxPoint x="680" y="410" as="targetPoint" />
          </mxGeometry>
        </mxCell>
        <mxCell id="_KhxZf7phmnwPME--tsP-5" value="i&amp;lt;strlen(str)?" style="rhombus;whiteSpace=wrap;html=1;" vertex="1" parent="WIyWlLk6GJQsqaUBKTNV-1">
          <mxGeometry x="374" y="370" width="80" height="80" as="geometry" />
        </mxCell>
        <mxCell id="_KhxZf7phmnwPME--tsP-10" style="edgeStyle=orthogonalEdgeStyle;rounded=0;orthogonalLoop=1;jettySize=auto;html=1;exitX=0.5;exitY=1;exitDx=0;exitDy=0;" edge="1" parent="WIyWlLk6GJQsqaUBKTNV-1" source="_KhxZf7phmnwPME--tsP-8">
          <mxGeometry relative="1" as="geometry">
            <mxPoint x="414" y="585" as="targetPoint" />
          </mxGeometry>
        </mxCell>
        <mxCell id="_KhxZf7phmnwPME--tsP-8" value="countAppear =1" style="rounded=0;whiteSpace=wrap;html=1;" vertex="1" parent="WIyWlLk6GJQsqaUBKTNV-1">
          <mxGeometry x="354" y="490" width="120" height="60" as="geometry" />
        </mxCell>
        <mxCell id="_KhxZf7phmnwPME--tsP-13" style="edgeStyle=orthogonalEdgeStyle;rounded=0;orthogonalLoop=1;jettySize=auto;html=1;exitX=0.5;exitY=1;exitDx=0;exitDy=0;entryX=0.5;entryY=0;entryDx=0;entryDy=0;" edge="1" parent="WIyWlLk6GJQsqaUBKTNV-1" source="_KhxZf7phmnwPME--tsP-11" target="_KhxZf7phmnwPME--tsP-12">
          <mxGeometry relative="1" as="geometry" />
        </mxCell>
        <mxCell id="_KhxZf7phmnwPME--tsP-11" value="j=i+1" style="rounded=0;whiteSpace=wrap;html=1;" vertex="1" parent="WIyWlLk6GJQsqaUBKTNV-1">
          <mxGeometry x="354" y="585" width="120" height="60" as="geometry" />
        </mxCell>
        <mxCell id="_KhxZf7phmnwPME--tsP-15" style="edgeStyle=orthogonalEdgeStyle;rounded=0;orthogonalLoop=1;jettySize=auto;html=1;exitX=0.5;exitY=1;exitDx=0;exitDy=0;entryX=0.5;entryY=0;entryDx=0;entryDy=0;" edge="1" parent="WIyWlLk6GJQsqaUBKTNV-1" source="_KhxZf7phmnwPME--tsP-12" target="_KhxZf7phmnwPME--tsP-14">
          <mxGeometry relative="1" as="geometry" />
        </mxCell>
        <mxCell id="_KhxZf7phmnwPME--tsP-21" style="edgeStyle=orthogonalEdgeStyle;rounded=0;orthogonalLoop=1;jettySize=auto;html=1;exitX=0;exitY=0.5;exitDx=0;exitDy=0;" edge="1" parent="WIyWlLk6GJQsqaUBKTNV-1" source="_KhxZf7phmnwPME--tsP-12">
          <mxGeometry relative="1" as="geometry">
            <mxPoint x="300" y="710" as="targetPoint" />
          </mxGeometry>
        </mxCell>
        <mxCell id="_KhxZf7phmnwPME--tsP-12" value="j&amp;lt;size?" style="rhombus;whiteSpace=wrap;html=1;" vertex="1" parent="WIyWlLk6GJQsqaUBKTNV-1">
          <mxGeometry x="374" y="670" width="80" height="80" as="geometry" />
        </mxCell>
        <mxCell id="_KhxZf7phmnwPME--tsP-16" style="edgeStyle=orthogonalEdgeStyle;rounded=0;orthogonalLoop=1;jettySize=auto;html=1;exitX=0.5;exitY=1;exitDx=0;exitDy=0;" edge="1" parent="WIyWlLk6GJQsqaUBKTNV-1" source="_KhxZf7phmnwPME--tsP-14">
          <mxGeometry relative="1" as="geometry">
            <mxPoint x="414" y="890" as="targetPoint" />
          </mxGeometry>
        </mxCell>
        <mxCell id="_KhxZf7phmnwPME--tsP-14" value="str[j] = str[i]?" style="rhombus;whiteSpace=wrap;html=1;" vertex="1" parent="WIyWlLk6GJQsqaUBKTNV-1">
          <mxGeometry x="374" y="780" width="80" height="80" as="geometry" />
        </mxCell>
        <mxCell id="_KhxZf7phmnwPME--tsP-18" style="edgeStyle=orthogonalEdgeStyle;rounded=0;orthogonalLoop=1;jettySize=auto;html=1;" edge="1" parent="WIyWlLk6GJQsqaUBKTNV-1" source="_KhxZf7phmnwPME--tsP-17">
          <mxGeometry relative="1" as="geometry">
            <mxPoint x="420" y="1000" as="targetPoint" />
          </mxGeometry>
        </mxCell>
        <mxCell id="_KhxZf7phmnwPME--tsP-17" value="countAppear++&lt;br&gt;count[j] = 1" style="rounded=0;whiteSpace=wrap;html=1;" vertex="1" parent="WIyWlLk6GJQsqaUBKTNV-1">
          <mxGeometry x="360" y="890" width="120" height="60" as="geometry" />
        </mxCell>
        <mxCell id="_KhxZf7phmnwPME--tsP-22" style="edgeStyle=orthogonalEdgeStyle;rounded=0;orthogonalLoop=1;jettySize=auto;html=1;exitX=1;exitY=0.5;exitDx=0;exitDy=0;entryX=1;entryY=0.5;entryDx=0;entryDy=0;" edge="1" parent="WIyWlLk6GJQsqaUBKTNV-1" source="_KhxZf7phmnwPME--tsP-19" target="_KhxZf7phmnwPME--tsP-11">
          <mxGeometry relative="1" as="geometry" />
        </mxCell>
        <mxCell id="_KhxZf7phmnwPME--tsP-19" value="j++" style="rounded=0;whiteSpace=wrap;html=1;" vertex="1" parent="WIyWlLk6GJQsqaUBKTNV-1">
          <mxGeometry x="360" y="1000" width="120" height="60" as="geometry" />
        </mxCell>
        <mxCell id="_KhxZf7phmnwPME--tsP-26" style="edgeStyle=orthogonalEdgeStyle;rounded=0;orthogonalLoop=1;jettySize=auto;html=1;exitX=0;exitY=0.5;exitDx=0;exitDy=0;" edge="1" parent="WIyWlLk6GJQsqaUBKTNV-1" source="_KhxZf7phmnwPME--tsP-23">
          <mxGeometry relative="1" as="geometry">
            <mxPoint x="160" y="710" as="targetPoint" />
          </mxGeometry>
        </mxCell>
        <mxCell id="_KhxZf7phmnwPME--tsP-37" style="edgeStyle=orthogonalEdgeStyle;rounded=0;orthogonalLoop=1;jettySize=auto;html=1;exitX=0.5;exitY=1;exitDx=0;exitDy=0;entryX=0.5;entryY=1;entryDx=0;entryDy=0;" edge="1" parent="WIyWlLk6GJQsqaUBKTNV-1" source="_KhxZf7phmnwPME--tsP-23" target="_KhxZf7phmnwPME--tsP-32">
          <mxGeometry relative="1" as="geometry">
            <mxPoint x="260" y="1120" as="targetPoint" />
            <Array as="points">
              <mxPoint x="260" y="1120" />
              <mxPoint x="740" y="1120" />
            </Array>
          </mxGeometry>
        </mxCell>
        <mxCell id="_KhxZf7phmnwPME--tsP-23" value="count[i] == 0?" style="rhombus;whiteSpace=wrap;html=1;" vertex="1" parent="WIyWlLk6GJQsqaUBKTNV-1">
          <mxGeometry x="220" y="670" width="80" height="80" as="geometry" />
        </mxCell>
        <mxCell id="_KhxZf7phmnwPME--tsP-24" value="false" style="text;html=1;align=center;verticalAlign=middle;resizable=0;points=[];autosize=1;strokeColor=none;fillColor=none;" vertex="1" parent="WIyWlLk6GJQsqaUBKTNV-1">
          <mxGeometry x="315" y="678" width="50" height="30" as="geometry" />
        </mxCell>
        <mxCell id="_KhxZf7phmnwPME--tsP-25" value="true" style="text;html=1;align=center;verticalAlign=middle;resizable=0;points=[];autosize=1;strokeColor=none;fillColor=none;" vertex="1" parent="WIyWlLk6GJQsqaUBKTNV-1">
          <mxGeometry x="410" y="748" width="40" height="30" as="geometry" />
        </mxCell>
        <mxCell id="_KhxZf7phmnwPME--tsP-28" style="edgeStyle=orthogonalEdgeStyle;rounded=0;orthogonalLoop=1;jettySize=auto;html=1;exitX=0;exitY=0.5;exitDx=0;exitDy=0;" edge="1" parent="WIyWlLk6GJQsqaUBKTNV-1" source="_KhxZf7phmnwPME--tsP-27">
          <mxGeometry relative="1" as="geometry">
            <mxPoint x="-20" y="710" as="targetPoint" />
          </mxGeometry>
        </mxCell>
        <mxCell id="_KhxZf7phmnwPME--tsP-27" value="str[i],countAppear" style="shape=parallelogram;perimeter=parallelogramPerimeter;whiteSpace=wrap;html=1;fixedSize=1;" vertex="1" parent="WIyWlLk6GJQsqaUBKTNV-1">
          <mxGeometry x="50" y="680" width="120" height="60" as="geometry" />
        </mxCell>
        <mxCell id="_KhxZf7phmnwPME--tsP-30" style="edgeStyle=orthogonalEdgeStyle;rounded=0;orthogonalLoop=1;jettySize=auto;html=1;exitX=0.5;exitY=0;exitDx=0;exitDy=0;entryX=0;entryY=0.5;entryDx=0;entryDy=0;" edge="1" parent="WIyWlLk6GJQsqaUBKTNV-1" source="_KhxZf7phmnwPME--tsP-29" target="_KhxZf7phmnwPME--tsP-5">
          <mxGeometry relative="1" as="geometry" />
        </mxCell>
        <mxCell id="_KhxZf7phmnwPME--tsP-29" value="i++" style="rounded=0;whiteSpace=wrap;html=1;" vertex="1" parent="WIyWlLk6GJQsqaUBKTNV-1">
          <mxGeometry x="-140" y="680" width="120" height="60" as="geometry" />
        </mxCell>
        <mxCell id="_KhxZf7phmnwPME--tsP-32" value="end" style="ellipse;whiteSpace=wrap;html=1;" vertex="1" parent="WIyWlLk6GJQsqaUBKTNV-1">
          <mxGeometry x="680" y="370" width="120" height="80" as="geometry" />
        </mxCell>
        <mxCell id="_KhxZf7phmnwPME--tsP-33" value="false" style="text;html=1;align=center;verticalAlign=middle;resizable=0;points=[];autosize=1;strokeColor=none;fillColor=none;" vertex="1" parent="WIyWlLk6GJQsqaUBKTNV-1">
          <mxGeometry x="475" y="378" width="50" height="30" as="geometry" />
        </mxCell>
        <mxCell id="_KhxZf7phmnwPME--tsP-34" value="true" style="text;html=1;align=center;verticalAlign=middle;resizable=0;points=[];autosize=1;strokeColor=none;fillColor=none;" vertex="1" parent="WIyWlLk6GJQsqaUBKTNV-1">
          <mxGeometry x="410" y="448" width="40" height="30" as="geometry" />
        </mxCell>
        <mxCell id="_KhxZf7phmnwPME--tsP-35" value="true" style="text;html=1;align=center;verticalAlign=middle;resizable=0;points=[];autosize=1;strokeColor=none;fillColor=none;" vertex="1" parent="WIyWlLk6GJQsqaUBKTNV-1">
          <mxGeometry x="180" y="678" width="40" height="30" as="geometry" />
        </mxCell>
        <mxCell id="_KhxZf7phmnwPME--tsP-38" value="false" style="text;html=1;align=center;verticalAlign=middle;resizable=0;points=[];autosize=1;strokeColor=none;fillColor=none;" vertex="1" parent="WIyWlLk6GJQsqaUBKTNV-1">
          <mxGeometry x="245" y="828" width="50" height="30" as="geometry" />
        </mxCell>
      </root>
    </mxGraphModel>
  </diagram>
</mxfile>
